<svg width="28" height="29" viewBox="0 0 28 29" fill="none" xmlns="http://www.w3.org/2000/svg">
<g id="Facebook">
<path id="Vector" d="M0.762954 3.99016C0 5.48754 0 7.44772 0 11.3681V16.9681C0 20.8885 0 22.8486 0.762954 24.346C1.43407 25.6632 2.50493 26.734 3.82207 27.4051C5.31945 28.1681 7.27963 28.1681 11.2 28.1681H13.8801V17.5539H9.90955V13.0836H13.8801V9.67648C13.8801 5.80058 16.2148 3.65965 19.7868 3.65965C21.4977 3.65965 23.2873 3.9617 23.2873 3.9617V7.76753H21.3154C19.3728 7.76753 18.767 8.9596 18.767 10.1826V13.0836H23.1041L22.4107 17.5539H18.767V28.1634C21.4232 28.1425 22.9549 28.0283 24.1779 27.4051C25.4951 26.734 26.5659 25.6632 27.237 24.346C28 22.8486 28 20.8885 28 16.9681V11.3681C28 7.44772 28 5.48754 27.237 3.99016C26.5659 2.67302 25.4951 1.60216 24.1779 0.931045C22.6806 0.168091 20.7204 0.168091 16.8 0.168091H11.2C7.27963 0.168091 5.31945 0.168091 3.82207 0.931045C2.50493 1.60216 1.43407 2.67302 0.762954 3.99016Z" fill="#ED805B"/>
</g>
</svg>
