<svg width="65" height="64" viewBox="0 0 65 64" fill="none" xmlns="http://www.w3.org/2000/svg">
<g id="Flower">
<path id="Vector" d="M24.4993 29.3335C24.4993 29.3335 19.166 26.6668 13.8327 26.6668C8.49935 26.6668 3.16602 32.0001 3.16602 32.0001C3.16602 32.0001 8.49935 37.3335 13.8327 37.3335C19.166 37.3335 24.4993 34.6668 24.4993 34.6668M35.166 40.0001C35.166 40.0001 37.8327 45.3335 37.8327 50.6668C37.8327 56.0001 32.4993 61.3335 32.4993 61.3335C32.4993 61.3335 27.166 56.0001 27.166 50.6668C27.166 45.3335 29.8327 40.0001 29.8327 40.0001M40.4994 29.3335C40.4994 29.3335 45.8327 26.6668 51.166 26.6668C56.4994 26.6668 61.8327 32.0001 61.8327 32.0001C61.8327 32.0001 56.4994 37.3335 51.166 37.3335C45.8327 37.3335 40.4994 34.6668 40.4994 34.6668M28.7287 24.4588C28.7287 24.4588 26.8433 18.8001 23.07 15.0295C19.2993 11.2588 11.758 11.2588 11.758 11.2588C11.758 11.2588 11.758 18.8001 15.5287 22.5735C19.2993 26.3441 24.958 28.2295 24.958 28.2295M24.958 35.7708C24.958 35.7708 19.2993 37.6561 15.5287 41.4295C11.758 45.2001 11.758 52.7415 11.758 52.7415C11.758 52.7415 19.2993 52.7415 23.07 48.9708C26.8407 45.2001 28.7287 39.5415 28.7287 39.5415M40.0434 35.7708C40.0434 35.7708 45.6967 37.6561 49.47 41.4295C53.2407 45.2001 53.2407 52.7415 53.2407 52.7415C53.2407 52.7415 45.6994 52.7415 41.9287 48.9708C38.158 45.2001 36.27 39.5415 36.27 39.5415M36.27 24.4588C36.27 24.4588 38.1554 18.8001 41.9287 15.0295C45.6994 11.2588 53.2407 11.2588 53.2407 11.2588C53.2407 11.2588 53.2407 18.8001 49.47 22.5735C45.6994 26.3441 40.0407 28.2295 40.0407 28.2295" stroke="#1D1D1F" stroke-width="1.5" stroke-miterlimit="1.5" stroke-linecap="round" stroke-linejoin="round"/>
<path id="Vector_2" d="M35.1667 24.0001C35.1667 24.0001 37.8333 18.6667 37.8333 13.3334C37.8333 8.00008 32.5 2.66675 32.5 2.66675C32.5 2.66675 27.1667 8.00008 27.1667 13.3334C27.1667 18.6667 29.8333 24.0001 29.8333 24.0001M32.5 40.0001C34.6217 40.0001 36.6566 39.1572 38.1569 37.6569C39.6571 36.1566 40.5 34.1218 40.5 32.0001C40.5 29.8784 39.6571 27.8435 38.1569 26.3432C36.6566 24.8429 34.6217 24.0001 32.5 24.0001C30.3783 24.0001 28.3434 24.8429 26.8431 26.3432C25.3429 27.8435 24.5 29.8784 24.5 32.0001C24.5 34.1218 25.3429 36.1566 26.8431 37.6569C28.3434 39.1572 30.3783 40.0001 32.5 40.0001Z" stroke="#1D1D1F" stroke-width="1.5" stroke-miterlimit="1.5" stroke-linecap="round" stroke-linejoin="round"/>
</g>
</svg>
