<svg width="28" height="29" viewBox="0 0 28 29" fill="none" xmlns="http://www.w3.org/2000/svg">
<g id="Instagram" clip-path="url(#clip0_181_1283)">
<g id="Vector">
<path d="M17.3944 14.1681C17.3944 12.2936 15.8748 10.7741 14.0005 10.7741C12.1261 10.7741 10.6067 12.2936 10.6067 14.1681C10.6067 16.0424 12.1261 17.562 14.0005 17.562C15.8748 17.562 17.3944 16.0424 17.3944 14.1681Z" fill="#ED805B"/>
<path fill-rule="evenodd" clip-rule="evenodd" d="M13.6612 5.82102C13.4553 5.82093 13.2645 5.82084 13.0871 5.82112V5.81858C11.1896 5.8207 10.8256 5.83342 9.88634 5.87585C8.89364 5.92145 8.35465 6.08691 7.99576 6.22691C7.52062 6.41188 7.18124 6.63248 6.82488 6.98885C6.46853 7.34521 6.24751 7.6846 6.06297 8.15976C5.92361 8.51867 5.75773 9.05745 5.71234 10.0502C5.66355 11.1235 5.6538 11.4442 5.6538 14.1632C5.6538 16.8822 5.66355 17.2046 5.71234 18.2779C5.75752 19.2707 5.92361 19.8095 6.06297 20.1679C6.24793 20.6433 6.46853 20.9818 6.82488 21.3382C7.18124 21.6946 7.52062 21.9152 7.99576 22.0997C8.35487 22.2391 8.89364 22.405 9.88634 22.4508C10.9596 22.4996 11.2818 22.5102 14.0005 22.5102C16.719 22.5102 17.0414 22.4996 18.1147 22.4508C19.1074 22.4054 19.6466 22.2399 20.0051 22.0999C20.4804 21.9154 20.8187 21.6948 21.1751 21.3384C21.5314 20.9823 21.7525 20.6439 21.937 20.1688C22.0764 19.8103 22.2422 19.2715 22.2876 18.2788C22.3364 17.2055 22.347 16.883 22.347 14.1658C22.347 11.4485 22.3364 11.1261 22.2876 10.0527C22.2424 9.06 22.0764 8.52121 21.937 8.16273C21.752 7.68757 21.5314 7.34818 21.1751 6.99182C20.8189 6.63545 20.4802 6.41485 20.0051 6.2303C19.6462 6.09094 19.1074 5.92506 18.1147 5.87967C17.0412 5.83088 16.719 5.82112 14.0005 5.82112C13.883 5.82112 13.77 5.82107 13.6612 5.82102ZM18.2135 8.73312C18.2135 8.05836 18.7608 7.51173 19.4353 7.51173C20.1098 7.51173 20.6571 8.05857 20.6571 8.73312C20.6571 9.40767 20.1098 9.95494 19.4353 9.95494C18.7608 9.95494 18.2135 9.40767 18.2135 8.73312ZM8.77188 14.1681C8.77188 11.2805 11.113 8.9393 14.0005 8.9393C16.888 8.9393 19.2283 11.2805 19.2283 14.1681C19.2283 17.0557 16.888 19.3958 14.0005 19.3958C11.113 19.3958 8.77188 17.0557 8.77188 14.1681Z" fill="#ED805B"/>
<path fill-rule="evenodd" clip-rule="evenodd" d="M0.762954 3.99027C0 5.4877 0 7.44794 0 11.3684V16.9686C0 20.8891 0 22.8493 0.762954 24.3468C1.43407 25.6639 2.50493 26.7348 3.82207 27.406C5.31945 28.1689 7.27963 28.1689 11.2 28.1689H16.8C20.7204 28.1689 22.6806 28.1689 24.1779 27.406C25.4951 26.7348 26.5659 25.6639 27.237 24.3468C28 22.8493 28 20.8891 28 16.9686V11.3684C28 7.44794 28 5.4877 27.237 3.99027C26.5659 2.6731 25.4951 1.6022 24.1779 0.931068C22.6806 0.168091 20.7204 0.168091 16.8 0.168091H11.2C7.27963 0.168091 5.31945 0.168091 3.82207 0.931068C2.50493 1.6022 1.43407 2.6731 0.762954 3.99027ZM9.80234 4.04779C10.8884 3.99836 11.2354 3.98627 14.0005 3.98627H13.9973C16.7633 3.98627 17.1091 3.99836 18.1951 4.04779C19.279 4.09742 20.0193 4.26903 20.6683 4.52082C21.3386 4.78067 21.905 5.12854 22.4713 5.69491C23.0377 6.26085 23.3855 6.82891 23.6464 7.49857C23.8967 8.14597 24.0685 8.88585 24.1194 9.96979C24.1682 11.0558 24.181 11.4029 24.181 14.1681C24.181 16.9333 24.1682 17.2795 24.1194 18.3655C24.0685 19.4491 23.8967 20.1891 23.6464 20.8368C23.3855 21.5062 23.0377 22.0743 22.4713 22.6402C21.9056 23.2066 21.3384 23.5553 20.669 23.8154C20.0212 24.0672 19.2805 24.2388 18.1966 24.2884C17.1105 24.3378 16.7646 24.3499 13.9992 24.3499C11.2343 24.3499 10.8875 24.3378 9.80149 24.2884C8.7178 24.2388 7.97773 24.0672 7.32993 23.8154C6.66071 23.5553 6.09266 23.2066 5.52695 22.6402C4.96082 22.0743 4.61295 21.5062 4.35268 20.8365C4.10112 20.1891 3.92952 19.4493 3.87967 18.3653C3.83046 17.2793 3.81816 16.9333 3.81816 14.1681C3.81816 11.4029 3.83088 11.0556 3.87946 9.96957C3.92824 8.88606 4.10006 8.14597 4.35247 7.49836C4.61337 6.82891 4.96124 6.26085 5.52759 5.69491C6.09351 5.12876 6.66155 4.78088 7.3312 4.52082C7.97858 4.26903 8.71843 4.09742 9.80234 4.04779Z" fill="#ED805B"/>
</g>
</g>
<defs>
<clipPath id="clip0_181_1283">
<rect width="28" height="28" fill="white" transform="translate(0 0.168091)"/>
</clipPath>
</defs>
</svg>
