<svg width="28" height="29" viewBox="0 0 28 29" fill="none" xmlns="http://www.w3.org/2000/svg">
<g id="Linkedin" clip-path="url(#clip0_181_1285)">
<path id="Vector" fill-rule="evenodd" clip-rule="evenodd" d="M0.762954 3.99016C0 5.48754 0 7.44772 0 11.3681V16.9681C0 20.8885 0 22.8486 0.762954 24.346C1.43407 25.6632 2.50493 26.734 3.82207 27.4051C5.31945 28.1681 7.27963 28.1681 11.2 28.1681H16.8C20.7204 28.1681 22.6806 28.1681 24.1779 27.4051C25.4951 26.734 26.5659 25.6632 27.237 24.346C28 22.8486 28 20.8885 28 16.9681V11.3681C28 7.44772 28 5.48754 27.237 3.99016C26.5659 2.67302 25.4951 1.60216 24.1779 0.931045C22.6806 0.168091 20.7204 0.168091 16.8 0.168091H11.2C7.27963 0.168091 5.31945 0.168091 3.82207 0.931045C2.50493 1.60216 1.43407 2.67302 0.762954 3.99016ZM4.975 23.5014H8.845V11.0386H4.975V23.5014ZM4.66667 7.07606C4.66667 8.31359 5.67042 9.33861 6.90792 9.33861C8.145 9.33861 9.14917 8.31359 9.14917 7.07606C9.14917 6.48163 8.91304 5.91154 8.49272 5.49122C8.0724 5.07089 7.50233 4.83476 6.90792 4.83476C6.3135 4.83476 5.74343 5.07089 5.32311 5.49122C4.9028 5.91154 4.66667 6.48163 4.66667 7.07606ZM19.4675 23.5014H23.3333V16.6554C23.3333 13.3054 22.6133 10.7261 18.6967 10.7261C16.8137 10.7261 15.5517 11.7595 15.035 12.7387H14.9808V11.0386H11.2692V23.5014H15.135V17.3305C15.135 15.7054 15.4433 14.1345 17.4554 14.1345C19.4383 14.1345 19.4675 15.9888 19.4675 17.4346V23.5014Z" fill="#ED805B"/>
</g>
<defs>
<clipPath id="clip0_181_1285">
<rect width="28" height="28" fill="white" transform="translate(0 0.168091)"/>
</clipPath>
</defs>
</svg>
