<svg width="26" height="27" viewBox="0 0 26 27" fill="none" xmlns="http://www.w3.org/2000/svg">
<path d="M4.33341 4.37012H21.6667C22.8584 4.37012 23.8334 5.35331 23.8334 6.55499V19.6642C23.8334 20.8659 22.8584 21.8491 21.6667 21.8491H4.33341C3.14175 21.8491 2.16675 20.8659 2.16675 19.6642V6.55499C2.16675 5.35331 3.14175 4.37012 4.33341 4.37012Z" fill="#FFE5D7"/>
<path d="M23.8334 6.55499L13.0001 14.2021L2.16675 6.55499" fill="#FFE5D7"/>
<path d="M23.8334 6.55499C23.8334 5.35331 22.8584 4.37012 21.6667 4.37012H4.33341C3.14175 4.37012 2.16675 5.35331 2.16675 6.55499M23.8334 6.55499V19.6642C23.8334 20.8659 22.8584 21.8491 21.6667 21.8491H4.33341C3.14175 21.8491 2.16675 20.8659 2.16675 19.6642V6.55499M23.8334 6.55499L13.0001 14.2021L2.16675 6.55499" stroke="#1D1D1F" stroke-width="2" stroke-linecap="round" stroke-linejoin="round"/>
</svg>
