<svg width="26" height="27" viewBox="0 0 26 27" fill="none" xmlns="http://www.w3.org/2000/svg">
<g clip-path="url(#clip0_2001_1686)">
<path d="M22.75 11.0596C22.75 18.6429 13 25.1429 13 25.1429C13 25.1429 3.25 18.6429 3.25 11.0596C3.25 8.47371 4.27723 5.99376 6.10571 4.16528C7.93419 2.3368 10.4141 1.30957 13 1.30957C15.5859 1.30957 18.0658 2.3368 19.8943 4.16528C21.7228 5.99376 22.75 8.47371 22.75 11.0596Z" fill="#FFE5D7"/>
<path d="M13 14.3096C14.7949 14.3096 16.25 12.8545 16.25 11.0596C16.25 9.26464 14.7949 7.80957 13 7.80957C11.2051 7.80957 9.75 9.26464 9.75 11.0596C9.75 12.8545 11.2051 14.3096 13 14.3096Z" fill="#FFE5D7"/>
<path d="M22.75 11.0596C22.75 18.6429 13 25.1429 13 25.1429C13 25.1429 3.25 18.6429 3.25 11.0596C3.25 8.47371 4.27723 5.99376 6.10571 4.16528C7.93419 2.3368 10.4141 1.30957 13 1.30957C15.5859 1.30957 18.0658 2.3368 19.8943 4.16528C21.7228 5.99376 22.75 8.47371 22.75 11.0596Z" stroke="#1D1D1F" stroke-width="2" stroke-linecap="round" stroke-linejoin="round"/>
<path d="M13 14.3096C14.7949 14.3096 16.25 12.8545 16.25 11.0596C16.25 9.26464 14.7949 7.80957 13 7.80957C11.2051 7.80957 9.75 9.26464 9.75 11.0596C9.75 12.8545 11.2051 14.3096 13 14.3096Z" stroke="#1D1D1F" stroke-width="2" stroke-linecap="round" stroke-linejoin="round"/>
</g>
<defs>
<clipPath id="clip0_2001_1686">
<rect width="26" height="26" fill="white" transform="translate(0 0.226562)"/>
</clipPath>
</defs>
</svg>
