<svg width="20" height="21" viewBox="0 0 20 21" fill="none"
    xmlns="http://www.w3.org/2000/svg">
    <path d="M18.3334 14.2681V16.7681C18.3344 17.0002 18.2868 17.2299 18.1939 17.4426C18.1009 17.6552 17.9645 17.8461 17.7935 18.003C17.6225 18.1599 17.4206 18.2794 17.2007 18.3537C16.9809 18.4281 16.7479 18.4557 16.5168 18.4348C13.9525 18.1562 11.4893 17.2799 9.32511 15.8765C7.31163 14.597 5.60455 12.8899 4.32511 10.8765C2.91676 8.70247 2.04031 6.22729 1.76677 3.65146C1.74595 3.42102 1.77334 3.18876 1.84719 2.96948C1.92105 2.7502 2.03975 2.54871 2.19575 2.37782C2.35174 2.20693 2.54161 2.07039 2.75327 1.9769C2.96492 1.88341 3.19372 1.83502 3.42511 1.8348H5.92511C6.32953 1.83082 6.7216 1.97403 7.02824 2.23774C7.33488 2.50145 7.53517 2.86767 7.59177 3.26813C7.69729 4.06819 7.89298 4.85374 8.17511 5.6098C8.28723 5.90807 8.31149 6.23223 8.24503 6.54386C8.17857 6.8555 8.02416 7.14156 7.80011 7.36813L6.74177 8.42646C7.92807 10.5128 9.65549 12.2402 11.7418 13.4265L12.8001 12.3681C13.0267 12.1441 13.3127 11.9897 13.6244 11.9232C13.936 11.8567 14.2602 11.881 14.5584 11.9931C15.3145 12.2753 16.1001 12.4709 16.9001 12.5765C17.3049 12.6336 17.6746 12.8375 17.9389 13.1494C18.2032 13.4613 18.3436 13.8594 18.3334 14.2681Z" stroke="#BE8A6C" stroke-linecap="round" stroke-linejoin="round"/>
</svg>
