<svg width="26" height="27" viewBox="0 0 26 27" fill="none" xmlns="http://www.w3.org/2000/svg">
<path d="M23.8333 18.557V21.807C23.8345 22.1087 23.7727 22.4073 23.6519 22.6838C23.531 22.9602 23.3537 23.2084 23.1314 23.4123C22.9091 23.6163 22.6466 23.7716 22.3608 23.8683C22.075 23.9649 21.7721 24.0008 21.4716 23.9737C18.138 23.6114 14.9359 22.4723 12.1225 20.6478C9.50495 18.9845 7.28575 16.7653 5.62247 14.1478C3.79161 11.3216 2.65223 8.1039 2.29663 4.75533C2.26956 4.45575 2.30517 4.15382 2.40118 3.86875C2.49719 3.58369 2.6515 3.32174 2.8543 3.09958C3.05709 2.87743 3.30392 2.69993 3.57908 2.57839C3.85423 2.45686 4.15167 2.39394 4.45247 2.39366H7.70247C8.22822 2.38849 8.73791 2.57466 9.13654 2.91749C9.53518 3.26031 9.79555 3.73639 9.86913 4.25699C10.0063 5.29707 10.2607 6.31828 10.6275 7.30116C10.7732 7.68891 10.8048 8.11032 10.7184 8.51545C10.632 8.92058 10.4312 9.29245 10.14 9.58699L8.76414 10.9628C10.3063 13.675 12.552 15.9206 15.2641 17.4628L16.64 16.087C16.9345 15.7957 17.3064 15.595 17.7115 15.5086C18.1166 15.4222 18.5381 15.4537 18.9258 15.5995C19.9087 15.9663 20.9299 16.2207 21.97 16.3578C22.4962 16.4321 22.9768 16.6971 23.3204 17.1026C23.6639 17.5081 23.8465 18.0257 23.8333 18.557Z" fill="#FFE5D7" stroke="#1D1D1F" stroke-width="2" stroke-linecap="round" stroke-linejoin="round"/>
</svg>
