<svg width="38" height="29" viewBox="0 0 38 29" fill="none" xmlns="http://www.w3.org/2000/svg">
<path d="M37.92 4.52C35.0827 5.41599 32.8053 6.76 31.088 8.552C29.4453 10.344 28.8107 12.6587 29.184 15.496C30.0053 16.168 31.1627 16.8773 32.656 17.624C34.1493 18.296 35.456 18.8187 36.576 19.192C36.8747 20.3867 36.8747 21.544 36.576 22.664C36.2773 23.784 35.792 24.792 35.12 25.688C34.448 26.5093 33.664 27.2187 32.768 27.816C31.872 28.3387 31.0507 28.6373 30.304 28.712C27.6907 28.488 25.4133 27.5173 23.472 25.8C21.5307 24.0827 20.56 21.6187 20.56 18.408C20.56 16.5413 20.8587 14.6747 21.456 12.808C22.128 10.9413 23.0987 9.22399 24.368 7.656C25.6373 6.01333 27.2427 4.59466 29.184 3.4C31.1253 2.13066 33.44 1.23466 36.128 0.711993L37.92 4.52ZM17.536 4.52C14.6987 5.41599 12.4213 6.76 10.704 8.552C9.06133 10.344 8.42667 12.6587 8.8 15.496C9.62133 16.168 10.7787 16.8773 12.272 17.624C13.7653 18.296 15.072 18.8187 16.192 19.192C16.4907 20.3867 16.4907 21.544 16.192 22.664C15.8933 23.784 15.408 24.792 14.736 25.688C14.064 26.5093 13.28 27.2187 12.384 27.816C11.488 28.3387 10.6667 28.6373 9.92 28.712C7.30667 28.488 5.02933 27.5173 3.088 25.8C1.14667 24.0827 0.176001 21.6187 0.176001 18.408C0.176001 16.5413 0.474667 14.6747 1.072 12.808C1.744 10.9413 2.71467 9.22399 3.984 7.656C5.25333 6.01333 6.85867 4.59466 8.8 3.4C10.7413 2.13066 13.056 1.23466 15.744 0.711993L17.536 4.52Z" fill="#1D1D1F"/>
</svg>
