<svg width="39" height="29" viewBox="0 0 39 29" fill="none" xmlns="http://www.w3.org/2000/svg">
<path d="M0.949138 24.48C3.78647 23.584 6.06381 22.24 7.78114 20.448C9.42381 18.656 10.0585 16.3413 9.68514 13.504C8.86381 12.832 7.70647 12.1227 6.21314 11.376C4.71981 10.704 3.41314 10.1813 2.29314 9.808C1.99447 8.61333 1.99447 7.456 2.29314 6.336C2.59181 5.216 3.07714 4.208 3.74914 3.312C4.42114 2.49067 5.20514 1.78133 6.10114 1.184C6.99714 0.661333 7.81847 0.362666 8.56514 0.287996C11.1785 0.511998 13.4558 1.48267 15.3971 3.2C17.3385 4.91733 18.3091 7.38133 18.3091 10.592C18.3091 12.4587 18.0105 14.3253 17.4131 16.192C16.7411 18.0587 15.7705 19.776 14.5011 21.344C13.2318 22.9867 11.6265 24.4053 9.68514 25.6C7.74381 26.8693 5.42914 27.7653 2.74114 28.288L0.949138 24.48ZM21.3331 24.48C24.1705 23.584 26.4478 22.24 28.1651 20.448C29.8078 18.656 30.4425 16.3413 30.0691 13.504C29.2478 12.832 28.0905 12.1227 26.5971 11.376C25.1038 10.704 23.7971 10.1813 22.6771 9.808C22.3785 8.61333 22.3785 7.456 22.6771 6.336C22.9758 5.216 23.4611 4.208 24.1331 3.312C24.8051 2.49067 25.5891 1.78133 26.4851 1.184C27.3811 0.661336 28.2025 0.362668 28.9491 0.287998C31.5625 0.512 33.8398 1.48267 35.7811 3.2C37.7225 4.91734 38.6931 7.38133 38.6931 10.592C38.6931 12.4587 38.3945 14.3253 37.7971 16.192C37.1251 18.0587 36.1545 19.776 34.8851 21.344C33.6158 22.9867 32.0105 24.4053 30.0691 25.6C28.1278 26.8693 25.8131 27.7653 23.1251 28.288L21.3331 24.48Z" fill="#1D1D1F"/>
</svg>
