<svg width="28" height="29" viewBox="0 0 28 29" fill="none" xmlns="http://www.w3.org/2000/svg">
<g id="Youtube" clip-path="url(#clip0_181_1284)">
<g id="Vector">
<path d="M11.8524 11.4433L17.341 14.5658L11.8524 17.6884V11.4433Z" fill="#ED805B"/>
<path fill-rule="evenodd" clip-rule="evenodd" d="M0.762954 3.99016C0 5.48754 0 7.44772 0 11.3681V16.9681C0 20.8885 0 22.8486 0.762954 24.346C1.43407 25.6632 2.50493 26.734 3.82207 27.4051C5.31945 28.1681 7.27963 28.1681 11.2 28.1681H16.8C20.7204 28.1681 22.6806 28.1681 24.1779 27.4051C25.4951 26.734 26.5659 25.6632 27.237 24.346C28 22.8486 28 20.8885 28 16.9681V11.3681C28 7.44772 28 5.48754 27.237 3.99016C26.5659 2.67302 25.4951 1.60216 24.1779 0.931045C22.6806 0.168091 20.7204 0.168091 16.8 0.168091H11.2C7.27963 0.168091 5.31945 0.168091 3.82207 0.931045C2.50493 1.60216 1.43407 2.67302 0.762954 3.99016ZM24.0609 9.47809C23.9422 9.03133 23.7082 8.62358 23.3824 8.29566C23.0565 7.96774 22.6503 7.73115 22.2043 7.60957C20.5625 7.16809 14 7.16809 14 7.16809C14 7.16809 7.4375 7.16809 5.79568 7.60957C5.34969 7.73115 4.94345 7.96774 4.61763 8.29566C4.2918 8.62358 4.05782 9.03133 3.93909 9.47809C3.5 11.1271 3.5 14.5658 3.5 14.5658C3.5 14.5658 3.5 18.0046 3.93909 19.6535C4.05782 20.1003 4.2918 20.5081 4.61763 20.836C4.94345 21.1639 5.34969 21.4005 5.79568 21.5221C7.4375 21.9635 14 21.9635 14 21.9635C14 21.9635 20.5625 21.9635 22.2043 21.5221C22.6503 21.4005 23.0565 21.1639 23.3824 20.836C23.7082 20.5081 23.9422 20.1003 24.0609 19.6535C24.5 18.0046 24.5 14.5658 24.5 14.5658C24.5 14.5658 24.5 11.1271 24.0609 9.47809Z" fill="#ED805B"/>
</g>
</g>
<defs>
<clipPath id="clip0_181_1284">
<rect width="28" height="28" fill="white" transform="translate(0 0.168091)"/>
</clipPath>
</defs>
</svg>
